<?xml version="1.0" encoding="iso-8859-1"?>
<!-- Uploaded to: SVG Repo, www.svgrepo.com, Generator: SVG Repo Mixer Tools -->
<svg fill="gray" height="800px" width="800px" version="1.1" id="Capa_1" xmlns="http://www.w3.org/2000/svg" xmlns:xlink="http://www.w3.org/1999/xlink"
	 viewBox="0 0 487.5 487.5" xml:space="preserve">
<g>
	<g>
		<path d="M437,12.3C437,5.5,431.5,0,424.7,0H126.3C84.4,0,50.4,34.1,50.4,75.9v335.7c0,41.9,34.1,75.9,75.9,75.9h298.5
			c6.8,0,12.3-5.5,12.3-12.3V139.6c0-6.8-5.5-12.3-12.3-12.3H126.3c-28.3,0-51.4-23.1-51.4-51.4S98,24.5,126.3,24.5h298.5
			C431.5,24.5,437,19,437,12.3z M126.3,151.8h286.2V463H126.3c-28.3,0-51.4-23.1-51.4-51.4V131.7
			C88.4,144.2,106.5,151.8,126.3,151.8z"/>
		<path d="M130.5,64.8c-6.8,0-12.3,5.5-12.3,12.3s5.5,12.3,12.3,12.3h280.1c6.8,0,12.3-5.5,12.3-12.3s-5.5-12.3-12.3-12.3H130.5z"/>
		<path d="M178,397.7c6.3,2.4,13.4-0.7,15.8-7.1l17.9-46.8h62.7c0.5,0,0.9-0.1,1.3-0.1l17.9,46.9c1.9,4.9,6.5,7.9,11.4,7.9
			c1.5,0,2.9-0.3,4.4-0.8c6.3-2.4,9.5-9.5,7.1-15.8l-54-141.2c-3-7.9-10.4-13-18.8-13c-8.4,0-15.8,5.1-18.8,13l-54,141.2
			C168.5,388.2,171.7,395.2,178,397.7z M243.7,260l22.7,59.3h-45.3L243.7,260z"/>
	</g>
</g>
</svg>