<svg width="18" height="18" viewBox="0 0 18 18" fill="black" xmlns="http://www.w3.org/2000/svg">
<path d="M17.7042 16.2871L14.3042 12.8971C15.4012 11.4996 15.9964 9.77376 15.9942 7.9971C15.9942 6.41485 15.525 4.86814 14.646 3.55254C13.7669 2.23695 12.5175 1.21157 11.0557 0.606068C9.59386 0.000567079 7.98533 -0.15786 6.43348 0.150822C4.88164 0.459504 3.45617 1.22143 2.33735 2.34025C1.21853 3.45907 0.456605 4.88453 0.147923 6.43638C-0.160759 7.98823 -0.00233209 9.59676 0.603169 11.0586C1.20867 12.5204 2.23405 13.7698 3.54964 14.6489C4.86524 15.5279 6.41195 15.9971 7.99421 15.9971C9.77086 15.9993 11.4967 15.4041 12.8942 14.3071L16.2842 17.7071C16.3772 17.8008 16.4878 17.8752 16.6096 17.926C16.7315 17.9768 16.8622 18.0029 16.9942 18.0029C17.1262 18.0029 17.2569 17.9768 17.3788 17.926C17.5006 17.8752 17.6112 17.8008 17.7042 17.7071C17.7979 17.6141 17.8723 17.5035 17.9231 17.3817C17.9739 17.2598 18 17.1291 18 16.9971C18 16.8651 17.9739 16.7344 17.9231 16.6125C17.8723 16.4907 17.7979 16.3801 17.7042 16.2871ZM1.99421 7.9971C1.99421 6.81042 2.3461 5.65038 3.00539 4.66368C3.66468 3.67699 4.60175 2.90795 5.6981 2.45383C6.79446 1.9997 8.00086 1.88088 9.16475 2.11239C10.3286 2.3439 11.3977 2.91535 12.2368 3.75446C13.076 4.59358 13.6474 5.66268 13.8789 6.82656C14.1104 7.99045 13.9916 9.19685 13.5375 10.2932C13.0834 11.3896 12.3143 12.3266 11.3276 12.9859C10.3409 13.6452 9.18089 13.9971 7.99421 13.9971C6.40291 13.9971 4.87678 13.365 3.75156 12.2397C2.62635 11.1145 1.99421 9.5884 1.99421 7.9971Z" fill="black"/>
</svg>
